<mxfile host="Electron" agent="Mozilla/5.0 (Macintosh; Intel Mac OS X 10_15_7) AppleWebKit/537.36 (KHTML, like Gecko) draw.io/26.0.15 Chrome/132.0.6834.196 Electron/34.2.0 Safari/537.36" version="26.0.15">
  <diagram name="第 1 页" id="rrUf3BizWK2Rwt9iwfHP">
    <mxGraphModel dx="941" dy="949" grid="1" gridSize="10" guides="1" tooltips="1" connect="1" arrows="1" fold="1" page="1" pageScale="1" pageWidth="1169" pageHeight="827" math="0" shadow="0">
      <root>
        <mxCell id="0" />
        <mxCell id="1" parent="0" />
        <mxCell id="3lt4fge63d5OYSHJ7H_2-1" value="&lt;font face=&quot;Comic Sans MS&quot; style=&quot;font-size: 18px;&quot;&gt;&lt;b&gt;准备阶段&lt;/b&gt;&lt;/font&gt;" style="rounded=1;whiteSpace=wrap;html=1;fillColor=#ffe6cc;strokeColor=#d79b00;sketch=1;curveFitting=1;jiggle=2;" vertex="1" parent="1">
          <mxGeometry x="100.00000000000023" y="99.99999999999989" width="120" height="60" as="geometry" />
        </mxCell>
        <mxCell id="3lt4fge63d5OYSHJ7H_2-2" value="&lt;span style=&quot;font-size: 18px;&quot;&gt;&lt;b&gt;&lt;font face=&quot;Comic Sans MS&quot;&gt;PreCommit阶段&lt;/font&gt;&lt;/b&gt;&lt;/span&gt;" style="rounded=1;whiteSpace=wrap;html=1;fillColor=#d5e8d4;strokeColor=#82b366;sketch=1;curveFitting=1;jiggle=2;" vertex="1" parent="1">
          <mxGeometry x="290.0000000000002" y="109.99999999999989" width="160" height="60" as="geometry" />
        </mxCell>
        <mxCell id="3lt4fge63d5OYSHJ7H_2-3" value="&lt;b style=&quot;border-color: var(--border-color); font-size: 18px;&quot;&gt;&lt;font face=&quot;Comic Sans MS&quot;&gt;提交阶段&lt;/font&gt;&lt;/b&gt;" style="rounded=1;whiteSpace=wrap;html=1;fillColor=#e1d5e7;strokeColor=#9673a6;sketch=1;curveFitting=1;jiggle=2;" vertex="1" parent="1">
          <mxGeometry x="560.0000000000002" y="109.99999999999989" width="120" height="60" as="geometry" />
        </mxCell>
        <mxCell id="3lt4fge63d5OYSHJ7H_2-4" value="&lt;font face=&quot;Comic Sans MS&quot;&gt;&lt;span style=&quot;font-size: 18px;&quot;&gt;&lt;b&gt;AtomicReferenceArray&lt;/b&gt;&lt;/span&gt;&lt;/font&gt;" style="rounded=1;whiteSpace=wrap;html=1;fillColor=#dae8fc;strokeColor=#6c8ebf;align=center;verticalAlign=middle;" vertex="1" parent="1">
          <mxGeometry x="320" y="389" width="400" height="50" as="geometry" />
        </mxCell>
        <mxCell id="3lt4fge63d5OYSHJ7H_2-5" value="" style="rounded=1;whiteSpace=wrap;html=1;fillColor=#f8cecc;strokeColor=#b85450;sketch=1;curveFitting=1;jiggle=2;" vertex="1" parent="1">
          <mxGeometry x="365" y="460" width="30" height="20" as="geometry" />
        </mxCell>
        <mxCell id="3lt4fge63d5OYSHJ7H_2-6" value="&lt;b style=&quot;border-color: var(--border-color); font-size: 18px;&quot;&gt;&lt;font face=&quot;Comic Sans MS&quot;&gt;准备阶段&lt;/font&gt;&lt;/b&gt;" style="rounded=1;whiteSpace=wrap;html=1;fillColor=#fff2cc;strokeColor=#d6b656;sketch=1;curveFitting=1;jiggle=2;" vertex="1" parent="1">
          <mxGeometry x="290.0000000000002" y="29.999999999999886" width="120" height="60" as="geometry" />
        </mxCell>
        <mxCell id="3lt4fge63d5OYSHJ7H_2-7" value="" style="rounded=1;whiteSpace=wrap;html=1;fillColor=#f8cecc;strokeColor=#b85450;sketch=1;curveFitting=1;jiggle=2;" vertex="1" parent="1">
          <mxGeometry x="365" y="480" width="30" height="20" as="geometry" />
        </mxCell>
        <mxCell id="3lt4fge63d5OYSHJ7H_2-8" value="" style="rounded=1;whiteSpace=wrap;html=1;fillColor=#f8cecc;strokeColor=#b85450;sketch=1;curveFitting=1;jiggle=2;" vertex="1" parent="1">
          <mxGeometry x="365" y="500" width="30" height="20" as="geometry" />
        </mxCell>
        <mxCell id="3lt4fge63d5OYSHJ7H_2-9" value="" style="rounded=1;whiteSpace=wrap;html=1;fillColor=#f8cecc;strokeColor=#b85450;sketch=1;curveFitting=1;jiggle=2;" vertex="1" parent="1">
          <mxGeometry x="365" y="520" width="30" height="20" as="geometry" />
        </mxCell>
        <mxCell id="3lt4fge63d5OYSHJ7H_2-10" value="&lt;font face=&quot;Comic Sans MS&quot; style=&quot;font-size: 18px;&quot;&gt;recencyQueue&lt;/font&gt;&lt;div&gt;&lt;font face=&quot;Comic Sans MS&quot; style=&quot;font-size: 18px;&quot;&gt;(LRU)&lt;/font&gt;&lt;/div&gt;" style="text;html=1;strokeColor=none;fillColor=none;align=center;verticalAlign=middle;whiteSpace=wrap;rounded=0;" vertex="1" parent="1">
          <mxGeometry x="320" y="570" width="120" height="30" as="geometry" />
        </mxCell>
        <mxCell id="3lt4fge63d5OYSHJ7H_2-11" value="" style="rounded=1;whiteSpace=wrap;html=1;fillColor=#f8cecc;strokeColor=#b85450;sketch=1;curveFitting=1;jiggle=2;" vertex="1" parent="1">
          <mxGeometry x="505" y="460" width="30" height="20" as="geometry" />
        </mxCell>
        <mxCell id="3lt4fge63d5OYSHJ7H_2-12" value="" style="rounded=1;whiteSpace=wrap;html=1;fillColor=#f8cecc;strokeColor=#b85450;sketch=1;curveFitting=1;jiggle=2;" vertex="1" parent="1">
          <mxGeometry x="505" y="480" width="30" height="20" as="geometry" />
        </mxCell>
        <mxCell id="3lt4fge63d5OYSHJ7H_2-13" value="" style="rounded=1;whiteSpace=wrap;html=1;fillColor=#f8cecc;strokeColor=#b85450;sketch=1;curveFitting=1;jiggle=2;" vertex="1" parent="1">
          <mxGeometry x="505" y="500" width="30" height="20" as="geometry" />
        </mxCell>
        <mxCell id="3lt4fge63d5OYSHJ7H_2-14" value="" style="rounded=1;whiteSpace=wrap;html=1;fillColor=#f8cecc;strokeColor=#b85450;sketch=1;curveFitting=1;jiggle=2;" vertex="1" parent="1">
          <mxGeometry x="505" y="520" width="30" height="20" as="geometry" />
        </mxCell>
        <mxCell id="3lt4fge63d5OYSHJ7H_2-15" value="&lt;font face=&quot;Comic Sans MS&quot; style=&quot;font-size: 18px;&quot;&gt;writeQueue&lt;/font&gt;&lt;div&gt;&lt;font face=&quot;Comic Sans MS&quot; style=&quot;font-size: 18px;&quot;&gt;(LRU)&lt;/font&gt;&lt;/div&gt;" style="text;html=1;strokeColor=none;fillColor=none;align=center;verticalAlign=middle;whiteSpace=wrap;rounded=0;" vertex="1" parent="1">
          <mxGeometry x="460" y="570" width="120" height="30" as="geometry" />
        </mxCell>
        <mxCell id="3lt4fge63d5OYSHJ7H_2-16" value="" style="rounded=1;whiteSpace=wrap;html=1;fillColor=#f8cecc;strokeColor=#b85450;sketch=1;curveFitting=1;jiggle=2;" vertex="1" parent="1">
          <mxGeometry x="645" y="460" width="30" height="20" as="geometry" />
        </mxCell>
        <mxCell id="3lt4fge63d5OYSHJ7H_2-17" value="" style="rounded=1;whiteSpace=wrap;html=1;fillColor=#f8cecc;strokeColor=#b85450;sketch=1;curveFitting=1;jiggle=2;" vertex="1" parent="1">
          <mxGeometry x="645" y="480" width="30" height="20" as="geometry" />
        </mxCell>
        <mxCell id="3lt4fge63d5OYSHJ7H_2-18" value="" style="rounded=1;whiteSpace=wrap;html=1;fillColor=#f8cecc;strokeColor=#b85450;sketch=1;curveFitting=1;jiggle=2;" vertex="1" parent="1">
          <mxGeometry x="645" y="500" width="30" height="20" as="geometry" />
        </mxCell>
        <mxCell id="3lt4fge63d5OYSHJ7H_2-19" value="" style="rounded=1;whiteSpace=wrap;html=1;fillColor=#f8cecc;strokeColor=#b85450;sketch=1;curveFitting=1;jiggle=2;" vertex="1" parent="1">
          <mxGeometry x="645" y="520" width="30" height="20" as="geometry" />
        </mxCell>
        <mxCell id="3lt4fge63d5OYSHJ7H_2-20" value="&lt;font face=&quot;Comic Sans MS&quot; style=&quot;font-size: 18px;&quot;&gt;accessQueue&lt;/font&gt;&lt;div&gt;&lt;font face=&quot;Comic Sans MS&quot; style=&quot;font-size: 18px;&quot;&gt;(LRU)&lt;/font&gt;&lt;/div&gt;" style="text;html=1;strokeColor=none;fillColor=none;align=center;verticalAlign=middle;whiteSpace=wrap;rounded=0;" vertex="1" parent="1">
          <mxGeometry x="600" y="570" width="120" height="30" as="geometry" />
        </mxCell>
        <mxCell id="3lt4fge63d5OYSHJ7H_2-24" value="&lt;font style=&quot;font-size: 16px;&quot; face=&quot;Comic Sans MS&quot;&gt;&lt;b&gt;&amp;nbsp;Segment&lt;/b&gt;&lt;/font&gt;" style="rounded=0;whiteSpace=wrap;html=1;strokeWidth=2;fillColor=none;verticalAlign=top;align=left;" vertex="1" parent="1">
          <mxGeometry x="280" y="340" width="450" height="290" as="geometry" />
        </mxCell>
        <mxCell id="3lt4fge63d5OYSHJ7H_2-25" value="&lt;div&gt;&lt;span style=&quot;font-family: &amp;quot;Comic Sans MS&amp;quot;; font-size: 18px;&quot;&gt;initialSize: 4&lt;/span&gt;&lt;font face=&quot;Comic Sans MS&quot; style=&quot;font-size: 18px;&quot;&gt;&lt;/font&gt;&lt;/div&gt;&lt;font face=&quot;Comic Sans MS&quot; style=&quot;font-size: 18px;&quot;&gt;maxSegmentWeight: 250&lt;/font&gt;&lt;div&gt;&lt;br&gt;&lt;/div&gt;" style="text;html=1;strokeColor=none;fillColor=none;align=left;verticalAlign=middle;whiteSpace=wrap;rounded=0;" vertex="1" parent="1">
          <mxGeometry x="280" y="280" width="240" height="60" as="geometry" />
        </mxCell>
        <mxCell id="3lt4fge63d5OYSHJ7H_2-28" value="&lt;font face=&quot;Comic Sans MS&quot; style=&quot;font-size: 18px;&quot;&gt;...&lt;/font&gt;" style="text;html=1;strokeColor=none;fillColor=none;align=center;verticalAlign=middle;whiteSpace=wrap;rounded=0;" vertex="1" parent="1">
          <mxGeometry x="760" y="475" width="120" height="30" as="geometry" />
        </mxCell>
      </root>
    </mxGraphModel>
  </diagram>
</mxfile>
